# xmcd CD database file
#
# Track frame offsets:
#	150
#	22275
#	32271
#	53713
#	64197
#
# Disc length: 1223 seconds
#
# Revision: 0
# Processed by: cddbd v1.5.1PL2 Copyright (c) Steve Scherf et al.
# Submitted via: CD2WAV32(JP) R3.22
#
DISCID=3b04c505
DTITLE=I..L.C -Image Leaf Craft- Various - ウタの欠片 - "Rough Sketch" Vocal Collection
DYEAR=2005
DGENRE=Game
TTITLE0=kaya - Windia
TTITLE1=結月そら - Life
TTITLE2=結月そら - エイデン
TTITLE3=kaya - 君の声
TTITLE4=結月そら - ソラ -Nostalgia Version-
EXTD=
EXTT0=「ラフスケッチ」OP/ふぁんな 曲:折倉俊則
EXTT1=曲:折倉俊則
EXTT2=曲:折倉俊則
EXTT3=曲:折倉俊則
EXTT4=曲:折倉俊則
PLAYORDER=
